#!OML:ASF F:\VICON\USERDATA\INSTALL\Justin_Nancy\Justin_Nancy.ASF
:FULLY-SPECIFIED
:DEGREES
117
root 7.23605 16.2346 5.58932 -24.6629 -66.4462 35.7691
lowerback 12.3155 -1.67108 -5.13316
upperback -0.0993677 -2.94739 0.438136
thorax -6.74205 -1.26725 3.88399
lowerneck -21.7634 -6.72641 -13.3849
upperneck 13.3051 -6.62825 8.34369
head 8.42243 -2.99985 4.0787
rclavicle 5.12864e-014 -7.95139e-015
rhumerus -48.9137 13.7981 -91.4756
rradius 108.822
rwrist -17.5004
rhand -8.48794 20.1115
rfingers 7.12502
rthumb 17.4393 -9.12618
lclavicle 5.12864e-014 -7.95139e-015
lhumerus -48.0989 -9.13048 107.055
lradius 107.795
lwrist 29.0556
lhand -12.0308 11.1113
lfingers 7.12502
lthumb 14.0273 40.618
rfemur -29.7515 -6.81715 33.7984
rtibia 51.4619
rfoot -17.7763 -14.3872
rtoes 14.6004
lfemur 0.0597393 -5.01218 -19.8938
ltibia 58.4693
lfoot 11.7967 1.78431
ltoes -5.18638
118
root 7.01999 16.187 5.73733 -24.4716 -67.721 35.3534
lowerback 12.6346 -1.44965 -4.37673
upperback 0.0388844 -2.5475 0.581567
thorax -6.83891 -1.09476 3.55171
lowerneck -22.0769 -6.64303 -12.478
upperneck 13.3927 -6.67874 7.94643
head 8.46192 -3.00969 3.78478
rclavicle -3.61788e-014 -1.11319e-014
rhumerus -47.2624 13.7491 -91.6919
rradius 108.241
rwrist -17.4526
rhand -8.52602 19.8115
rfingers 7.12502
rthumb 17.4026 -9.42951
lclavicle -3.61788e-014 -1.11319e-014
lhumerus -48.6202 -9.19382 106.525
lradius 107.484
lwrist 28.5856
lhand -11.2392 10.6863
lfingers 7.12502
lthumb 14.79 40.1385
rfemur -28.2558 -6.11303 34.3229
rtibia 51.2829
rfoot -18.5428 -14.8503
rtoes 11.9504
lfemur -1.80058 -3.99129 -18.3704
ltibia 61.3988
lfoot 10.5067 3.24118
ltoes -6.22975
119
root 6.80089 16.147 5.87255 -24.2975 -69.1483 35.3373
lowerback 12.6512 -0.946218 -3.76412
upperback 0.15193 -1.79541 0.490024
thorax -6.81575 -0.752808 2.97367
lowerneck -22.3757 -6.77508 -11.1382
upperneck 13.2661 -7.17092 7.6225
head 8.45642 -3.19636 3.37988
rclavicle 6.75868e-015 9.54166e-015
rhumerus -45.5323 12.8929 -92.1469
rradius 107.854
rwrist -17.1573
rhand -8.26655 19.4701
rfingers 7.12502
rthumb 17.6523 -9.74864
lclavicle 6.75868e-015 9.54166e-015
lhumerus -49.2684 -10.2423 105.84
lradius 107.373
lwrist 29.0314
lhand -11.1452 10.7886
lfingers 7.12502
lthumb 14.8806 40.2342
rfemur -27.0243 -5.35997 34.866
rtibia 50.9033
rfoot -19.0083 -15.3893
rtoes 9.18197
lfemur -4.1521 -2.81028 -16.8731
ltibia 64.2949
lfoot 9.14551 4.84694
ltoes -6.22255
120
root 6.58488 16.1065 6.00392 -24.7746 -70.5907 35.8458
lowerback 12.8331 -0.959923 -3.82583
upperback 0.159291 -1.78363 1.15003
thorax -6.88833 -0.732138 3.71398
lowerneck -22.4081 -6.47176 -11.9321
upperneck 13.1594 -6.54431 7.85878
head 8.4005 -2.9179 3.68224
rclavicle -1.15295e-014 -6.36111e-015
rhumerus -44.0837 14.5966 -92.3352
rradius 107.529
rwrist -16.8129
rhand -8.07076 19.8135
rfingers 7.12502
rthumb 17.8408 -9.38818
lclavicle -1.15295e-014 -6.36111e-015
lhumerus -49.7143 -8.63486 105.767
lradius 107.577
lwrist 30.1888
lhand -13.2098 11.6777
lfingers 7.12502
lthumb 12.891 41.2596
rfemur -25.5845 -4.9907 35.2561
rtibia 50.4747
rfoot -19.4136 -15.7393
rtoes 5.77551
lfemur -6.41032 -1.14565 -15.3403
ltibia 67.0655
lfoot 7.73097 5.71972
ltoes -5.46807
121
root 6.36597 16.0751 6.13889 -25.2437 -71.6022 36.2575
lowerback 12.9274 -0.747815 -3.44652
upperback 0.375768 -1.44024 1.29878
thorax -6.74593 -0.583617 3.59359
lowerneck -22.6675 -6.49901 -11.9451
upperneck 13.0327 -6.55792 7.95794
head 8.40594 -2.90852 3.71263
rclavicle 3.73715e-014 -7.95139e-015
rhumerus -42.5966 14.9712 -92.7457
rradius 107.54
rwrist -15.9888
rhand -8.73556 20.2442
rfingers 7.12502
rthumb 17.201 -9.01446
lclavicle 3.73715e-014 -7.95139e-015
lhumerus -50.2345 -8.38721 105.49
lradius 107.631
lwrist 30.3737
lhand -14.4866 12.3232
lfingers 7.12502
lthumb 11.6599 41.9788
rfemur -24.089 -4.8003 35.3372
rtibia 49.9913
rfoot -20.4757 -15.61
rtoes 6.00251
lfemur -8.73513 0.471629 -13.8479
ltibia 69.6209
lfoot 6.45027 5.89985
ltoes -4.52076
122
root 6.14478 16.0509 6.26978 -25.5783 -72.37 36.5431
lowerback 13.0884 -0.576903 -3.22895
upperback 0.549765 -1.17818 1.45307
thorax -6.674 -0.466383 3.58795
lowerneck -22.8233 -6.53215 -11.7544
upperneck 12.8218 -6.60139 7.78861
head 8.35066 -2.9321 3.61359
rclavicle -1.51076e-014 1.59028e-014
rhumerus -41.4092 15.5441 -93.1877
rradius 107.993
rwrist -14.9261
rhand -10.1717 20.5076
rfingers 7.12502
rthumb 15.8183 -8.86617
lclavicle -1.51076e-014 1.59028e-014
lhumerus -50.7879 -8.25668 104.984
lradius 107.537
lwrist 29.5631
lhand -14.31 12.0115
lfingers 7.12502
lthumb 11.8302 41.6574
rfemur -22.6262 -4.59291 35.3165
rtibia 49.4539
rfoot -21.3725 -15.5305
rtoes 6.27765
lfemur -11.1394 1.58929 -12.6238
ltibia 71.9078
lfoot 5.08281 5.86397
ltoes -4.57733
123
root 5.91984 16.0374 6.4075 -25.8396 -73.153 36.7185
lowerback 13.4334 -0.557369 -3.03979
upperback 0.607047 -1.11824 1.71929
thorax -6.80955 -0.438079 3.76165
lowerneck -22.8978 -6.33086 -11.5751
upperneck 12.7173 -6.32819 7.56791
head 8.28482 -2.81485 3.54846
rclavicle 6.36111e-015 1.27222e-014
rhumerus -40.3775 16.4499 -93.7384
rradius 108.73
rwrist -14.5811
rhand -10.3701 20.6959
rfingers 7.12502
rthumb 15.6272 -8.6929
lclavicle 6.36111e-015 1.27222e-014
lhumerus -51.4153 -7.55773 104.288
lradius 107.577
lwrist 28.9099
lhand -13.2843 11.5694
lfingers 7.12502
lthumb 12.8192 41.1558
rfemur -21.0742 -4.64574 35.3026
rtibia 48.8137
rfoot -21.9143 -15.6649
rtoes 3.91836
lfemur -13.4513 2.34168 -11.6538
ltibia 73.8338
lfoot 3.87918 5.88261
ltoes -6.08793
124
root 5.69745 16.0301 6.54278 -27.0594 -73.9854 37.8971
lowerback 13.6929 -0.376493 -2.70642
upperback 0.72153 -0.839008 1.68788
thorax -6.86149 -0.315019 3.4901
lowerneck -22.9292 -6.26695 -11.3621
upperneck 12.5527 -6.29364 7.54498
head 8.22272 -2.78881 3.51075
rclavicle 9.93923e-015 -7.95139e-015
rhumerus -39.1597 16.5678 -94.4474
rradius 109.517
rwrist -14.8098
rhand -9.00897 20.4971
rfingers 7.12502
rthumb 16.9378 -8.78429
lclavicle 9.93923e-015 -7.95139e-015
lhumerus -52.048 -7.48712 103.496
lradius 107.738
lwrist 28.5006
lhand -11.8233 11.3659
lfingers 7.12502
lthumb 14.2272 40.8587
rfemur -19.5155 -4.5507 34.9552
rtibia 48.1547
rfoot -22.6107 -15.3325
rtoes 2.98976
lfemur -15.7283 3.12081 -11.0385
ltibia 75.4119
lfoot 2.82596 5.76634
ltoes -7.9306
125
root 5.45791 16.0326 6.6675 -28.9066 -74.8693 39.8648
lowerback 13.5525 -0.006954 -2.44773
upperback 0.879946 -0.317747 1.56421
thorax -6.65678 -0.0780443 3.10689
lowerneck -22.7858 -6.40516 -11.3491
upperneck 12.1886 -6.48875 7.55607
head 8.09507 -2.88073 3.48352
rclavicle 7.95139e-016 -2.38542e-014
rhumerus -37.9608 16.4688 -94.9848
rradius 110.412
rwrist -15.0231
rhand -7.95468 20.3563
rfingers 7.12502
rthumb 17.9524 -8.83515
lclavicle 7.95139e-016 -2.38542e-014
lhumerus -52.744 -7.89346 103.009
lradius 107.943
lwrist 28.1489
lhand -11.2411 10.7852
lfingers 7.12502
lthumb 14.7883 40.2376
rfemur -17.9922 -4.11451 34.4124
rtibia 47.486
rfoot -23.5624 -14.3187
rtoes 4.5285
lfemur -17.9859 3.87961 -10.6337
ltibia 76.5858
lfoot 1.57159 5.50526
ltoes -7.70091
126
root 5.20832 16.0429 6.79062 -31.055 -75.6096 42.1666
lowerback 13.4093 0.329659 -2.55224
upperback 0.95816 0.114383 1.56622
thorax -6.52461 0.132018 3.08455
lowerneck -22.5968 -6.50298 -11.6342
upperneck 11.8781 -6.56335 7.67424
head 7.98112 -2.92074 3.55949
rclavicle -1.74931e-014 -1.11319e-014
rhumerus -37.1937 16.9477 -95.4347
rradius 111.503
rwrist -15.005
rhand -8.3165 20.769
rfingers 7.12502
rthumb 17.6043 -8.45404
lclavicle -1.74931e-014 -1.11319e-014
lhumerus -53.4644 -7.87442 102.578
lradius 108.149
lwrist 27.7193
lhand -11.1706 10.4736
lfingers 7.12502
lthumb 14.8561 39.921
rfemur -16.4537 -3.56452 33.7502
rtibia 46.7995
rfoot -24.2387 -13.2256
rtoes 6.05816
lfemur -20.1706 4.37268 -10.469
ltibia 77.3744
lfoot 0.261578 5.0998
ltoes -6.26095
127
root 4.95798 16.0632 6.91118 -33.5511 -76.0422 44.9837
lowerback 13.2438 0.547742 -2.92067
upperback 0.898534 0.351451 1.51833
thorax -6.51517 0.259491 3.19794
lowerneck -22.4707 -6.49994 -11.8602
upperneck 11.8395 -6.53528 7.85217
head 7.95967 -2.90308 3.66215
rclavicle 2.38542e-015 7.95139e-015
rhumerus -36.6799 17.695 -96.033
rradius 112.635
rwrist -14.5741
rhand -8.94992 20.9044
rfingers 7.12502
rthumb 16.9946 -8.37214
lclavicle 2.38542e-015 7.95139e-015
lhumerus -54.1733 -7.63998 101.878
lradius 108.419
lwrist 27.6699
lhand -10.318 10.2674
lfingers 7.12502
lthumb 15.6774 39.6522
rfemur -15.1281 -2.97947 32.9222
rtibia 46.0263
rfoot -24.0382 -12.9584
rtoes 3.24754
lfemur -22.5383 4.88878 -10.6711
ltibia 77.8255
lfoot -0.716087 4.44797
ltoes -8.12524
128
root 4.70294 16.103 7.03626 -34.8256 -76.2694 46.8206
lowerback 12.8583 0.530704 -2.85099
upperback 0.715567 0.347529 1.41859
thorax -6.49273 0.258808 3.052
lowerneck -22.3746 -6.39744 -11.784
upperneck 11.8274 -6.42355 7.81212
head 7.92456 -2.85248 3.65403
rclavicle -8.34896e-015 -1.43125e-014
rhumerus -36.1547 18.5627 -96.7365
rradius 113.602
rwrist -14.2866
rhand -8.93342 20.9802
rfingers 7.12502
rthumb 17.0105 -8.29504
lclavicle -8.34896e-015 -1.43125e-014
lhumerus -54.9003 -7.29048 101.106
lradius 108.733
lwrist 28.0131
lhand -8.91719 10.2986
lfingers 7.12502
lthumb 17.0261 39.5724
rfemur -14.1135 -2.86571 32.1954
rtibia 45.0482
rfoot -23.5837 -12.5556
rtoes 0.294582
lfemur -25.3142 5.19016 -10.936
ltibia 78.0443
lfoot -1.62705 3.96201
ltoes -11.864
129
root 4.43912 16.1571 7.17523 -34.3915 -76.473 46.7536
lowerback 12.5347 0.318359 -2.22968
upperback 0.565238 0.169092 1.47628
thorax -6.45551 0.156764 2.79163
lowerneck -22.4238 -6.2768 -11.7849
upperneck 12.0587 -6.22786 7.61746
head 7.98311 -2.77923 3.61639
rclavicle -2.62396e-014 2.38542e-014
rhumerus -35.7435 19.7193 -97.2559
rradius 114.481
rwrist -14.2437
rhand -9.02382 21.3956
rfingers 7.12502
rthumb 16.9235 -7.88704
lclavicle -2.62396e-014 2.38542e-014
lhumerus -55.6268 -6.6182 100.554
lradius 109.014
lwrist 27.7511
lhand -7.98417 10.4283
lfingers 7.12502
lthumb 17.9241 39.6224
rfemur -12.8618 -3.14473 31.7167
rtibia 43.8101
rfoot -23.3423 -11.6739
rtoes 1.13381
lfemur -27.961 4.74834 -10.9705
ltibia 78.067
lfoot -2.54865 4.0195
ltoes -13.1768
130
root 4.18233 16.2007 7.29361 -31.4227 -77.2726 44.1485
lowerback 12.1249 0.330335 -0.945762
upperback 0.454967 0.382461 1.66449
thorax -6.34836 0.225612 2.2236
lowerneck -22.4966 -6.43189 -12.1917
upperneck 12.2782 -6.3532 7.83707
head 8.10363 -2.83618 3.73826
rclavicle -1.90833e-014 -1.59028e-014
rhumerus -35.1984 20.2594 -97.6815
rradius 115.216
rwrist -13.8878
rhand -9.34794 21.7925
rfingers 7.12502
rthumb 16.6115 -7.51662
lclavicle -1.90833e-014 -1.59028e-014
lhumerus -56.1568 -6.36011 99.9784
lradius 109.248
lwrist 27.8477
lhand -7.03398 10.8292
lfingers 7.12502
lthumb 18.8381 39.937
rfemur -11.5573 -3.27902 32.2744
rtibia 42.3056
rfoot -22.5864 -10.7555
rtoes 1.91464
lfemur -30.7023 4.86922 -9.76904
ltibia 77.8984
lfoot -3.64575 3.11156
ltoes -14.3366
